<?xml version="1.0" encoding="utf-8"?>
<!-- Generator: Adobe Illustrator 25.2.2, SVG Export Plug-In . SVG Version: 6.00 Build 0)  -->
<svg version="1.1" id="Layer_1" xmlns="http://www.w3.org/2000/svg" xmlns:xlink="http://www.w3.org/1999/xlink" x="0px" y="0px"
	 viewBox="0 0 788.7 505.5" style="enable-background:new 0 0 788.7 505.5;" xml:space="preserve">
<style type="text/css">
	.st0{fill:none;}
	.st1{fill:#231F20;}
	.st2{fill:none;stroke:#C49A6C;stroke-width:1.3;stroke-miterlimit:10;}
	.st3{fill:none;stroke:#C49A6C;stroke-width:0.99;stroke-miterlimit:10;}
	.st4{fill:none;stroke:#C49A6C;stroke-width:1.35;stroke-miterlimit:10;}
	.st5{fill:#FFFFFF;}
	.st6{fill:#C49A6C;}
	.st7{fill:none;stroke:#FFFFFF;stroke-width:0.56;stroke-miterlimit:10;}
	.st8{fill:none;stroke:#FFFFFF;stroke-width:0.5;stroke-miterlimit:10;}
	.st9{fill:#8B5E3C;}
	.st10{fill:#FFDCDC;}
	.st11{fill:#754C29;}
	.st12{fill:none;stroke:#C49A6C;stroke-width:1.02;stroke-miterlimit:10;}
	.st13{opacity:0.89;}
	.st14{fill:#EAC4A0;}
	.st15{fill:#A97C50;}
	.st16{fill:url(#SVGID_1_);}
	.st17{fill:#9E1B2B;}
	.st18{fill:none;stroke:#603913;stroke-width:0.87;stroke-miterlimit:10;}
	.st19{fill:#603913;stroke:#603913;stroke-width:0.6476;stroke-miterlimit:9.9624;}
	.st20{fill:none;stroke:#603913;stroke-width:0.79;stroke-miterlimit:10;}
	.st21{fill:#603913;stroke:#603913;stroke-width:0.5926;stroke-miterlimit:10.0449;}
	.st22{fill:none;stroke:#FFFFFF;stroke-width:1.71;stroke-miterlimit:10;}
	.st23{font-family:'MyriadPro-Regular';}
	.st24{font-size:15.01px;}
</style>
<pattern  y="505.5" width="28.8" height="28.8" patternUnits="userSpaceOnUse" id="_10_dpi_10_" viewBox="0.7 -29.5 28.8 28.8" style="overflow:visible;">
	<g>
		<rect x="0.7" y="-29.5" class="st0" width="28.8" height="28.8"/>
		<rect x="0.7" y="-29.5" class="st0" width="28.8" height="28.8"/>
		<circle class="st1" cx="29.5" cy="-29.5" r="0.7"/>
		<path class="st1" d="M15.1-30.2c0.4,0,0.7,0.3,0.7,0.7c0,0.4-0.3,0.7-0.7,0.7c-0.4,0-0.7-0.3-0.7-0.7l0,0
			C14.4-29.9,14.7-30.2,15.1-30.2z"/>
		<path class="st1" d="M29.5-15.8c0.4,0,0.7,0.3,0.7,0.7s-0.3,0.7-0.7,0.7c-0.4,0-0.7-0.3-0.7-0.7l0,0
			C28.8-15.5,29.1-15.8,29.5-15.8z"/>
		<path class="st1" d="M15.1-15.8c0.4,0,0.7,0.3,0.7,0.7c0,0.4-0.3,0.7-0.7,0.7c-0.4,0-0.7-0.3-0.7-0.7S14.7-15.8,15.1-15.8
			C15.1-15.8,15.1-15.8,15.1-15.8z"/>
		<path class="st1" d="M7.9-23c0.4,0,0.7,0.3,0.7,0.7c0,0.4-0.3,0.7-0.7,0.7s-0.7-0.3-0.7-0.7l0,0C7.2-22.7,7.5-23,7.9-23z"/>
		<path class="st1" d="M22.3-23c0.4,0,0.7,0.3,0.7,0.7s-0.3,0.7-0.7,0.7c-0.4,0-0.7-0.3-0.7-0.7c0,0,0,0,0,0
			C21.6-22.7,21.9-23,22.3-23z"/>
		<path class="st1" d="M7.9-8.6c0.4,0,0.7,0.3,0.7,0.7S8.3-7.2,7.9-7.2S7.2-7.5,7.2-7.9S7.5-8.6,7.9-8.6L7.9-8.6z"/>
		<path class="st1" d="M22.3-8.6c0.4,0,0.7,0.3,0.7,0.7s-0.3,0.7-0.7,0.7c-0.4,0-0.7-0.3-0.7-0.7v0C21.6-8.3,21.9-8.6,22.3-8.6z"/>
		<circle class="st1" cx="0.7" cy="-29.5" r="0.7"/>
		<path class="st1" d="M0.7-15.8c0.4,0,0.7,0.3,0.7,0.7c0,0.4-0.3,0.7-0.7,0.7c-0.4,0-0.7-0.3-0.7-0.7l0,0C0-15.5,0.3-15.8,0.7-15.8
			z"/>
		<path class="st1" d="M29.5-1.4c0.4,0,0.7,0.3,0.7,0.7c0,0,0,0,0,0c0,0.4-0.3,0.7-0.7,0.7c-0.4,0-0.7-0.3-0.7-0.7
			C28.8-1.1,29.1-1.4,29.5-1.4z"/>
		<path class="st1" d="M15.1-1.4c0.4,0,0.7,0.3,0.7,0.7c0,0,0,0,0,0c0,0.4-0.3,0.7-0.7,0.7l0,0c-0.4,0-0.7-0.3-0.7-0.7c0,0,0,0,0,0
			C14.4-1.1,14.7-1.4,15.1-1.4L15.1-1.4z"/>
		<path class="st1" d="M0.7-1.4c0.4,0,0.7,0.3,0.7,0.7c0,0,0,0,0,0C1.4-0.3,1.1,0,0.7,0c0,0,0,0,0,0C0.3,0,0-0.3,0-0.7c0,0,0,0,0,0
			C0-1.1,0.3-1.4,0.7-1.4C0.7-1.4,0.7-1.4,0.7-1.4z"/>
	</g>
</pattern>
<g id="cup_bootom">
	<path class="st2" d="M393.1,435c30.5,0.7,54.1,6.4,54.1,13.3c0,7.4-27.3,13.4-61,13.4s-61-6-61-13.4c0-7,24.4-12.7,55.5-13.3"/>
	<path class="st3" d="M394.3,352.6l1.2,91.5c0,2-4.2,1.7-7.8,1.7h-2.4c-1.2,0-2.4,0-3.5-0.1c-2-0.1-3.6-0.5-3.6-1.6l3-91"/>
	<path class="st4" d="M385.1,348L385.1,348c0.5-0.1,0.9-0.2,1.3-0.3"/>
	<path class="st5" d="M379.5,446.6L379.5,446.6c-0.7,0-2,0.3-1.9-1.7l4.3-89.1c0.1-1.9,0.8-3.5,1.5-3.5l0,0c0.7,0,1.3,1.6,1.2,3.6
		l-3.4,89.1C381.1,446.9,380.2,446.6,379.5,446.6z"/>
	<path class="st6" d="M392.1,431.6L392.1,431.6c-0.4,0-1,0.3-1-1.1l-0.5-63.5c0-1.4,0.3-2.5,0.6-2.5l0,0c0.4,0,0.7,1.1,0.7,2.5
		l1,63.4C392.9,431.8,392.5,431.6,392.1,431.6z"/>
	<path class="st6" d="M410.8,439.8c9.7,0.7,16.2,3,18.9,5.3c0.7,0.6,1.3,1.3,1.6,2.2c0.4,1.9-6,3.8-7.3,4.2c-4.3,1.1-8.7,2-13.2,2.5
		c-3.4,0.5-9.5,1.5-15.2,0.6c20-1.6,34-4.6,33.5-7.6C428.5,443.6,420.1,441.5,410.8,439.8z"/>
	<path class="st5" d="M402.9,443.2c4,0.3,6.8,1.2,7.8,2.2c0.3,0.2,0.5,0.6,0.6,0.9c0.1,0.8-2.5,1.6-3,1.8c-1.8,0.5-3.6,0.8-5.5,1
		c-2.1,0.4-4.2,0.5-6.3,0.2c8.3-0.7,14.1-1.9,13.9-3.1C410.2,444.8,406.8,443.9,402.9,443.2z"/>
	<path class="st7" d="M346.3,447.4c0,3.4,9.7,6.2,21.7,6.2"/>
	<path class="st8" d="M347.5,444.8c0-3,11.5-5.4,25.8-5.4"/>
	<path class="st6" d="M400,446.4c0,1.1-5.6,2-12.4,2s-12.4-0.9-12.4-2c0-0.6,1.4-1,3.6-1.4l1.2-0.1l1.2-0.1c4.4-3,8.6-2.6,12.7-0.1
		c0.4,0,0.9,0.1,1.3,0.2l1.3,0.2C398.6,445.4,400,445.9,400,446.4z"/>
	<path class="st5" d="M391.8,443.5c0,0.8-6.5-0.9-9.3,1.5c-1.7,1.4-4.6-0.6-4.6-1.4s2.1-1.4,4.6-1.4S391.8,442.7,391.8,443.5z"/>
</g>
<g id="straw">
	
		<rect x="326.3" y="164.1" transform="matrix(0.4549 -0.8905 0.8905 0.4549 100.085 506.381)" class="st9" width="274.7" height="14.8"/>
	<polygon class="st0" points="457.5,199.7 438.6,204.4 430.4,220.4 449.4,215.7 	"/>
	<polygon class="st0" points="507.4,102.2 488.4,106.8 479.7,123.9 498.6,119.3 	"/>
	<polygon class="st0" points="441.4,231.2 422.5,235.9 413.8,253 432.7,248.3 	"/>
	<polygon class="st0" points="405.6,296 407.8,297.1 408.7,295.3 	"/>
	<polygon class="st0" points="474.6,166.2 455.7,170.9 446.5,188.9 465.4,184.2 	"/>
	<polygon class="st0" points="490.7,134.8 471.8,139.4 463.6,155.4 482.5,150.8 	"/>
	<polygon class="st0" points="424.8,263.8 405.8,268.4 397.7,284.5 416.6,279.8 	"/>
	<polygon class="st0" points="523.5,70.7 504.5,75.4 496.3,91.4 515.3,86.7 	"/>
	<polygon class="st0" points="532.7,52.5 519.6,45.8 512.4,59.9 531.4,55.2 	"/>
	<polygon class="st10" points="531.4,55.2 512.4,59.9 504.5,75.4 523.5,70.7 	"/>
	<polygon class="st10" points="515.3,86.7 496.3,91.4 488.4,106.8 507.4,102.2 	"/>
	<polygon class="st10" points="498.6,119.3 479.7,123.9 471.8,139.4 490.7,134.8 	"/>
	<polygon class="st10" points="482.5,150.8 463.6,155.4 455.7,170.9 474.6,166.2 	"/>
	<polygon class="st10" points="465.4,184.2 446.5,188.9 438.6,204.4 457.5,199.7 	"/>
	<polygon class="st10" points="449.4,215.7 430.4,220.4 422.5,235.9 441.4,231.2 	"/>
	<polygon class="st10" points="432.7,248.3 413.8,253 405.8,268.4 424.8,263.8 	"/>
	<polygon class="st10" points="416.6,279.8 397.7,284.5 394.6,290.4 405.6,296 408.7,295.3 	"/>
</g>
<path class="st11" d="M491.4,201.7c0,14.4-60.6,102.7-117.1,102.7s-93-15.9-93-30.2s36.4-21.8,93-21.8S491.4,187.4,491.4,201.7z"/>
<path class="st12" d="M504.1,222.4c-0.5-6.1-1.4-44.1-2.7-49.9h-236c-0.4,1.6-0.7,35.2-1,36.8C251.8,275,294.9,338.5,360.7,351
	c65.7,12.5,129.1-30.6,141.7-96.3c0.8-4,1.3-8,1.7-12c0.3-3.6,0.5-7.2,0.5-10.9C504.5,228.7,504.4,225.6,504.1,222.4z"/>
<g id="drink">
	<g class="st13">
		<path class="st14" d="M383.3,350.3c-65.3,0-118.1-52.9-118.1-118.2c0-7.3,0.7-14.7,2-21.9c0.1-0.8,0.3-30.6,0.5-31.4l231.2-1
			c1,5,1.8,40.1,2.1,45.2c0.2,3,0.4,6.1,0.4,9.2c0,3.6-0.2,7.2-0.5,10.6C495.5,303.7,444.4,350.3,383.3,350.3L383.3,350.3z"/>
	</g>
</g>
<circle class="st9" cx="361.6" cy="329.4" r="9.5"/>
<ellipse transform="matrix(0.9677 -0.2522 0.2522 0.9677 -70.0653 101.286)" class="st5" cx="360" cy="323.9" rx="2.1" ry="1"/>
<circle class="st9" cx="381.2" cy="332.4" r="9.5"/>
<ellipse transform="matrix(0.1939 -0.981 0.981 0.1939 -22.3624 635.5594)" class="st5" cx="375.6" cy="331.4" rx="2.1" ry="1"/>
<circle class="st9" cx="403.8" cy="320.8" r="9.5"/>
<ellipse transform="matrix(0.8061 -0.5917 0.5917 0.8061 -108.6182 303.1277)" class="st5" cx="408.3" cy="317.3" rx="1" ry="2.1"/>
<circle class="st9" cx="423.9" cy="330.2" r="9.5"/>
<ellipse transform="matrix(0.8061 -0.5917 0.5917 0.8061 -110.2593 316.8292)" class="st5" cx="428.4" cy="326.7" rx="1" ry="2.1"/>
<circle class="st9" cx="423.7" cy="306.3" r="9.5"/>
<ellipse transform="matrix(0.8061 -0.5917 0.5917 0.8061 -96.1716 312.0933)" class="st5" cx="428.2" cy="302.8" rx="1" ry="2.1"/>
<circle class="st9" cx="457" cy="311" r="9.5"/>
<ellipse transform="matrix(0.8061 -0.5917 0.5917 0.8061 -92.4848 332.6983)" class="st5" cx="461.5" cy="307.5" rx="1" ry="2.1"/>
<circle class="st9" cx="335.3" cy="322.1" r="9.5"/>
<ellipse transform="matrix(0.9196 -0.3928 0.3928 0.9196 -97.7144 156.2444)" class="st5" cx="332.9" cy="316.9" rx="2.1" ry="1"/>
<circle class="st9" cx="313.3" cy="301.2" r="9.5"/>
<ellipse transform="matrix(0.5317 -0.8469 0.8469 0.5317 -108.2936 400.881)" class="st5" cx="308.4" cy="298.4" rx="2.1" ry="1"/>
<circle class="st9" cx="367.7" cy="304.9" r="9.5"/>
<ellipse transform="matrix(0.8061 -0.5917 0.5917 0.8061 -106.2041 278.6798)" class="st5" cx="372.2" cy="301.4" rx="1" ry="2.1"/>
<circle class="st9" cx="410.6" cy="279.2" r="9.5"/>
<ellipse transform="matrix(0.3484 -0.9373 0.9373 0.3484 12.0358 564.9474)" class="st5" cx="412.4" cy="273.8" rx="1" ry="2.1"/>
<circle class="st9" cx="391.6" cy="303.1" r="9.5"/>
<ellipse transform="matrix(0.9998 -1.745241e-02 1.745241e-02 0.9998 -5.1312 6.8746)" class="st5" cx="391.3" cy="297.4" rx="2.1" ry="1"/>
<circle class="st9" cx="443" cy="288.4" r="9.5"/>
<ellipse transform="matrix(0.8061 -0.5917 0.5917 0.8061 -81.8327 320.0224)" class="st5" cx="447.5" cy="284.9" rx="1" ry="2.1"/>
<circle class="st9" cx="441.2" cy="322" r="9.5"/>
<ellipse transform="matrix(0.8061 -0.5917 0.5917 0.8061 -102.0354 325.4681)" class="st5" cx="445.7" cy="318.5" rx="1" ry="2.1"/>
<circle class="st9" cx="404.5" cy="333.7" r="9.5"/>
<ellipse transform="matrix(0.8061 -0.5917 0.5917 0.8061 -116.1069 305.9818)" class="st5" cx="408.9" cy="330.2" rx="1" ry="2.1"/>
<circle class="st9" cx="385.5" cy="325.7" r="9.5"/>
<ellipse transform="matrix(0.8061 -0.5917 0.5917 0.8061 -115.0789 293.208)" class="st5" cx="389.9" cy="322.2" rx="1" ry="2.1"/>
<circle class="st9" cx="358.6" cy="317.1" r="9.5"/>
<ellipse transform="matrix(0.8061 -0.5917 0.5917 0.8061 -115.1975 275.6235)" class="st5" cx="363" cy="313.6" rx="1" ry="2.1"/>
<circle class="st9" cx="349" cy="331.5" r="9.5"/>
<ellipse transform="matrix(0.8601 -0.5101 0.5101 0.8601 -118.3303 222.1188)" class="st5" cx="345.8" cy="326.8" rx="2.1" ry="1"/>
<circle class="st9" cx="323.3" cy="318.3" r="9.5"/>
<ellipse transform="matrix(0.9991 -4.309628e-02 4.309628e-02 0.9991 -13.1725 14.2055)" class="st5" cx="322.9" cy="312.6" rx="2.1" ry="1"/>
<path class="st5" d="M494.4,253.1c-2.5,19.8-10.5,38.6-23.3,54c-27.6,33-66.6,36.7-74.4,37.2c24.4-4.4,46.7-16.4,64-34.1
	c28.2-29.2,32-63.7,32.7-73.4L494.4,253.1z"/>
<path class="st9" d="M501.7,175.6c0,5.8-53.7,13.4-118,13.4s-118.4-8.8-118.4-14.6s55.6-0.7,119.9-0.7S501.7,169.9,501.7,175.6z"/>
<path class="st9" d="M485.7,129.5c5.3,14.7,12,37.1-3.7,47.2c-9,6.7-23.5,0-31.9,10.4c-1.9,2.4-3.7,4.8-5.3,7.4
	c-5.1,7.7-9.9,15.8-17.7,21.4c-13.4,10.1-29.1-4.5-43.3,1.6c-2.7,0.7-5.2,2.1-7.3,3.9c-8.8,6.8-10.7,19.6-15.4,28.3
	c-1.1,2.1-2.4,4-4.1,5.6c-6,5.4-15,6.5-20.6,2.1c-5.2-5.2-9.1-12.4-13-19.4c-1.9-3.5-3.9-6.8-6.1-10.1c-8.8-16.4-26.7-4.1-37.9-4.1
	c-16.8,0-15.7-30.2-24.4-45.7c-1.1-3.8-1.9-7.6-2.6-11.5c-3.1-18.9-0.3-38.7,6.3-56.2c1.2-3.2,2.5-6.3,3.9-9.4s2.7-6,4.1-8.8
	c1.7-3,3.7-5.9,5.8-8.6c2.4-3,5-5.8,7.8-8.5c19.8-18.8,50.9-30.9,85.8-30.9s66,12.1,85.8,30.9c2.8,2.6,5.4,5.5,7.8,8.4
	c5.5,8.7,11.4,17,16.3,25.5c1.2,2.1,2.4,4.2,3.5,6.4s2.1,4.3,3.1,6.6C483.7,124.5,484.8,127,485.7,129.5z"/>
<path class="st5" d="M345.3,254.8c-2.3,0.1-4.5-0.6-6.4-2c-4.5-4.5-8.1-10.9-11.5-17.1l-0.9-1.6c-1.9-3.4-3.9-6.9-6.2-10.2
	c-3.6-6.6-9.2-9.9-16.5-9.9c-4.7,0-9.4,1.3-13.9,2.5c-3.8,1-7.3,2-10.1,2c-8.1,0-11.1-9.5-14.8-24c-1.8-7-3.7-14.3-6.8-19.9
	c-1-3.6-1.8-7.2-2.4-10.8c-2.9-17.3-0.6-36.8,6.1-54.7c1.1-3,2.4-6,3.8-9.2c1.2-2.7,2.5-5.6,4-8.6c1.7-2.8,3.5-5.6,5.5-8.2
	c2.3-2.9,4.8-5.6,7.5-8.2c20.2-19.1,50.7-30,83.7-30s63.6,10.9,83.8,30c2.6,2.5,5.1,5.2,7.4,8c1.9,3,3.8,5.9,5.7,8.8
	c3.7,5.7,7.2,11,10.4,16.5c1.3,2.2,2.4,4.3,3.4,6.2c1.1,2.2,2.1,4.3,3,6.4l0,0.1c1.1,2.4,2.1,4.8,3.1,7.2c6,16.8,10.5,35.2-2.5,43.6
	l-0.1,0.1l-0.1,0.1c-3.2,2.4-7.7,2.7-12.5,3.1c-6.8,0.5-14.4,1-19.9,7.9c-2,2.4-3.8,5-5.5,7.6c-0.6,0.9-1.2,1.8-1.8,2.7
	c-4.5,6.8-8.7,13.3-15.1,17.9c-2.8,2.1-6.2,3.2-9.7,3.1c-3.8-0.2-7.5-0.7-11.2-1.7c-4.2-1.1-8.4-1.7-12.7-1.9c-3.1,0-6.1,0.5-9,1.7
	c-3,0.9-5.8,2.3-8.2,4.3c-6.7,5.2-9.7,13.3-12.4,20.4c-1.1,3-2.3,6-3.7,8.8c-0.9,1.8-2.1,3.5-3.5,4.9
	C352.7,253.3,349.1,254.8,345.3,254.8z"/>
<path class="st15" d="M348.1,263c-1.7,0.1-3.5-0.4-4.9-1.4c-4.6-4.5-8.5-11-12.2-17.3l-1-1.7c-2.1-3.7-4.5-7.4-7-10.9
	c-4.6-7.9-12-12-21.3-12c-5.7,0-11.1,1.4-16.4,2.7c-4,1-7.7,2-10.4,2c-6,0-9-7.1-13.3-23c-2-7.5-4.1-15.2-7.7-21.5
	c-1-3.5-1.9-7.1-2.5-10.8c-3.1-17.8-0.7-37.8,6.7-56.2c1.2-3.1,2.6-6.3,4.2-9.6c1.3-2.8,2.8-5.8,4.4-8.8c1.8-2.9,3.7-5.6,5.9-8.2
	c2.5-2.9,5.1-5.7,8-8.3c21.9-19.7,55.2-30.9,91.3-30.9s69.4,11.3,91.3,30.9c2.8,2.5,5.4,5.2,7.9,8c2.1,3.2,4.4,6.4,6.3,9.2
	c4.1,6,8,11.6,11.5,17.3c1.4,2.3,2.6,4.4,3.8,6.5c1.2,2.2,2.3,4.4,3.2,6.5l0.1,0.2c1.2,2.5,2.4,5,3.4,7.5
	c11.3,29.7,5.6,38.1-1.5,42.3l-0.2,0.1l-0.2,0.1c-2.8,2-7.4,2.3-12.2,2.6c-7.8,0.5-17.6,1.2-24.6,9.6c-2.2,2.6-4.3,5.4-6.3,8.2
	l-2,2.8l-0.1,0.1c-4.8,7-9.4,13.6-16.1,18.1c-2.6,1.9-5.7,2.8-8.9,2.7c-4-0.2-7.9-0.8-11.8-1.8c-4.9-1.2-9.9-1.9-14.9-2.1
	c-3.8,0-7.6,0.6-11.2,2c-3.7,1-7.1,2.8-10.1,5.1c-8.1,6.1-11.7,15-14.9,22.9c-1.1,3.1-2.5,6.1-4,9c-0.8,1.6-1.9,3.1-3.3,4.3
	C354.6,261.8,351.4,263,348.1,263z"/>
<path class="st9" d="M345.8,256.4c-0.5,0-1-0.1-1.5-0.3c-4-4.2-7.5-10.4-10.9-16.5l-1-1.8c-2.1-3.8-4.5-7.8-7.2-11.6
	c-5.1-9.4-15.1-15.2-25.8-15c-6.4,0-12.2,1.5-17.8,3c-3.5,0.9-7,1.9-9,1.9c-2.9,0-6.9-15.1-8.1-20c-2.1-7.9-4.2-16.1-7.9-23.1
	c-0.9-3.3-1.7-6.7-2.2-10.1c-2.9-17.7-0.6-37.6,6.4-56c1.2-3.1,2.6-6.4,4.1-9.8c1.3-2.8,2.7-5.8,4.2-8.8c1.6-2.7,3.4-5.3,5.4-7.8
	c2.3-2.8,4.8-5.5,7.5-8c21-19.6,52.9-30.9,87.7-30.9s66.8,11.3,87.7,30.9c2.6,2.4,5,4.9,7.2,7.7c2,3.2,4.2,6.4,6.1,9.2l0.1,0.2
	c4.1,6.2,8,12,11.4,17.8c1.4,2.3,2.5,4.4,3.6,6.5c1.2,2.2,2.1,4.3,3,6.4l0.2,0.4c1.2,2.5,2.3,5,3.2,7.5c11.3,31.1,3.8,35.9,0.6,37.9
	l-0.4,0.2l-0.3,0.2c-1.6,1.2-5.7,1.5-9.4,1.7c-8.4,0.6-20,1.4-28.5,12c-2.3,2.9-4.5,5.9-6.6,9c-0.6,1-1.3,1.9-1.9,2.9l-0.1,0.2
	c-4.5,6.9-8.8,13.3-14.7,17.5l-0.1,0.1c-1.6,1.2-3.6,1.9-5.7,1.8c-3.6-0.2-7.1-0.8-10.6-1.7c-5.1-1.1-10.3-2.3-16.1-2.3
	c-4.4-0.1-8.9,0.8-13,2.4c-4.3,1.3-8.3,3.4-11.7,6.2c-9.3,7.2-13.3,17.7-16.5,26.2c-1.1,3-2.3,5.9-3.7,8.8c-0.6,1.2-1.3,2.2-2.2,3.1
	C349.6,255.7,347.7,256.4,345.8,256.4z"/>
<path class="st6" d="M346.8,229.5c-1.2-1.9-2.4-3.8-3.5-5.8l-1-1.7c-2.2-3.7-4.6-7.6-7.4-11.4c-7.4-12-20.1-18.9-34.9-18.9
	c-7.8,0-14.6,1.7-20.7,3.2l-0.7,0.2c-0.8-2.2-1.8-5.6-3.2-10.4c-2.1-7.7-4.3-15.6-8.1-22.9c-0.7-2.5-1.3-5.1-1.7-7.7
	c-2.6-15.2-0.5-32.4,5.9-48.3c1.1-2.8,2.4-5.8,3.9-8.8c1.2-2.5,2.4-5,3.8-7.7c1.3-2.1,2.8-4.1,4.4-6.1c2-2.3,4.2-4.5,6.5-6.6
	c19-16.8,48.1-26.5,80.1-26.5s61.1,9.6,80.1,26.5c2.1,1.8,4,3.8,5.9,5.9c1.9,2.8,3.9,5.7,5.7,8.2l0.2,0.3c4,5.7,7.8,11.1,11.1,16.4
	c1.3,2,2.4,3.9,3.4,5.7s1.9,3.6,2.7,5.4l0.4,0.8c1.1,2.1,2,4.3,2.9,6.4c6.9,17.9,5.4,23.6,5,24.6l-0.4,0.2c-1.2,0.2-3.5,0.3-4.8,0.4
	c-9.2,0.6-24.6,1.6-36,15c-2.5,3-4.9,6-7.1,9.2c-0.6,0.9-1.3,1.8-1.9,2.8l-0.1,0.2c-3.9,5.6-7.6,10.9-11.8,13.8
	c-2.6-0.3-5.2-0.7-7.8-1.3c-6.1-1.5-12.3-2.3-18.5-2.4c-5.7,0-11.3,0.9-16.6,2.8c-5.4,1.6-10.4,4.1-14.9,7.6
	c-11.5,8.5-16.2,20.3-19.7,28.9C347.4,228.2,347.1,228.9,346.8,229.5z"/>
<path class="st15" d="M272.8,135.8c1.4,3.8,3.3,7.5,5.6,10.8c2.2,3,4.8,5.8,7.6,8.2c2.8,2.4,5.8,4.6,9,6.6c3.2,2,6.5,3.8,9.9,5.4
	c7,3.2,14.3,5.7,21.8,7.6c3.8,0.9,7.6,1.8,11.5,2.6s7.8,1.4,11.8,2.2v11.8c-4.4,0.7-8.9,1-13.4,0.9c-13.7-0.3-27.1-3.9-39.2-10.4
	c-4.1-2.3-7.9-4.9-11.5-7.9c-3.6-3.1-6.8-6.7-9.4-10.7c-2.6-4-4.5-8.5-5.5-13.2c-1-4.6-0.7-9.3,0.7-13.8L272.8,135.8z"/>
<path class="st15" d="M416.8,87.5c0.5,1.2,0.9,2.5,1.2,3.8c0.1,0.7,0.3,1.3,0.3,2l0.1,2c0,2.8-0.4,5.5-1.2,8.2
	c-1.7,5.3-4.5,10.1-8.2,14.2c-3.6,4-7.7,7.5-12.2,10.3c-4.4,2.7-9.1,5-13.9,6.8c-9.5,3.5-19.4,5.4-29.5,5.8
	c-9.9,0.5-19.9-0.8-29.4-3.8v-1c4.7-1.7,9.3-3,13.8-4.4l13.3-4.1c8.7-2.8,17.1-5.7,25.2-9.1c7.8-3.3,15.3-7.2,22.4-11.8l1.3-0.9
	l1.2-0.9c0.9-0.6,1.6-1.2,2.5-1.8c0.4-0.3,0.8-0.7,1.2-1s0.8-0.7,1.2-1l1.1-1.1c0.4-0.3,0.8-0.7,1.1-1.1c1.5-1.5,2.9-3.2,4.1-4.9
	c1.3-2,2.5-4,3.5-6.2L416.8,87.5z"/>
<pattern  id="SVGID_1_" xlink:href="#_10_dpi_10_" patternTransform="matrix(0.96 0 0 -0.84 -314.7134 -15087.167)">
</pattern>
<path class="st16" d="M346.1,215.9c-1.2-1.7-2.3-3.5-3.5-5.3l-1-1.5c-2.2-3.3-4.5-6.9-7.3-10.4c-7.3-10.9-19.8-17.2-34.4-17.2
	c-7.7,0-14.4,1.6-20.4,2.9l-0.7,0.2c-0.8-2-1.8-5-3.1-9.5c-2.1-7-4.2-14.2-8-20.9c-0.7-2.3-1.3-4.6-1.7-7c-2.6-13.9-0.5-29.5,5.8-44
	c1.1-2.6,2.4-5.2,3.8-8c1.1-2.2,2.4-4.6,3.8-7c1.3-1.9,2.8-3.8,4.4-5.5c2-2.1,4.1-4.1,6.4-6c18.7-15.3,47.5-24.1,79-24.1
	s60.3,8.8,79,24.1c2,1.7,4,3.5,5.8,5.4c1.9,2.6,3.9,5.2,5.6,7.5l0.2,0.3c4,5.2,7.7,10.1,10.9,15c1.3,1.9,2.3,3.6,3.3,5.2
	s1.9,3.3,2.6,4.9l0.4,0.7c1,2,2,3.9,2.9,5.8c6.8,16.3,5.3,21.5,5,22.4l-0.4,0.2c-1.2,0.2-3.4,0.3-4.7,0.4
	c-9.1,0.6-24.3,1.5-35.5,13.6c-2.5,2.7-4.9,5.5-7.1,8.4c-0.6,0.8-1.3,1.7-1.9,2.5l-0.1,0.2c-3.8,5.1-7.5,9.9-11.6,12.5
	c-2.6-0.2-5.1-0.7-7.7-1.2c-6-1.3-12.1-2.1-18.3-2.2c-5.6-0.1-11.2,0.8-16.5,2.5c-5.3,1.4-10.2,3.7-14.7,6.9
	c-11.3,7.7-16,18.5-19.4,26.3C346.6,214.7,346.4,215.3,346.1,215.9z"/>
<ellipse transform="matrix(0.7071 -0.7071 0.7071 0.7071 10.6035 243.0034)" class="st15" cx="298.6" cy="108.7" rx="11" ry="7"/>
<ellipse transform="matrix(0.866 -0.5 0.5 0.866 -5.5378 169.7238)" class="st15" cx="313.9" cy="95.2" rx="11" ry="7"/>
<path class="st17" d="M294,84.8c8.7,2.6,11.4,8.8,8.6,18.1s-9.9,18.1-18.6,15.5s-13.5-12.2-10.7-21.5S285.3,82.2,294,84.8z"/>
<ellipse transform="matrix(0.5965 -0.8026 0.8026 0.5965 25.7127 270.7699)" class="st5" cx="282.2" cy="109.8" rx="1.5" ry="4"/>
<path class="st18" d="M279.7,94.3c-11-3.3-21.1-2.4-22.4,2.1"/>
<ellipse transform="matrix(0.5822 -0.8131 0.8131 0.5822 38.8555 266.9753)" class="st19" cx="279.2" cy="95.7" rx="1.7" ry="0.6"/>
<path class="st17" d="M320.4,80.2c3.9,7.2,1.6,12.9-6,17.1s-17.9,5.3-21.8-1.9s-0.9-16.4,6.8-20.6S316.5,73,320.4,80.2z"/>
<ellipse transform="matrix(0.9888 -0.149 0.149 0.9888 -9.9003 45.2428)" class="st5" cx="297" cy="88.7" rx="1.4" ry="3.6"/>
<path class="st20" d="M305.3,77.2c-5-9.2-12-14.9-15.7-12.9"/>
<ellipse transform="matrix(0.9856 -0.1692 0.1692 0.9856 -8.6438 52.9969)" class="st21" cx="306.6" cy="77.2" rx="1.6" ry="0.5"/>
<path class="st5" d="M277.1,262.7c5,28.4,22.4,53.1,47.4,67.4c-8.2-6.6-15.6-14.2-21.9-22.6c-5.6-7.4-9.3-14.1-15.5-25.5
	C282.8,274.2,279.4,267.5,277.1,262.7z"/>
<g id="button">
	<circle class="st22" cx="387" cy="254.2" r="34.4"/>
	<text transform="matrix(1 0 0 1 375.43 247.49)" class="st5 st23 st24">G</text>
	<text transform="matrix(1 0 0 1 385.2 247.49)" class="st5 st23 st24">et</text>
	<text transform="matrix(1 0 0 1 358.51 265.5)" class="st5 st23 st24">C</text>
	<text transform="matrix(1 0 0 1 367.05 265.5)" class="st5 st23 st24">oupons</text>
</g>
</svg>
