<svg xmlns="http://www.w3.org/2000/svg" xmlns:xlink="http://www.w3.org/1999/xlink" viewBox="0 0 788.66 505.5"><defs><style>.cls-1,.cls-13,.cls-20,.cls-22,.cls-24,.cls-3,.cls-4,.cls-5,.cls-8,.cls-9{fill:none;}.cls-2{fill:#231f20;}.cls-13,.cls-3,.cls-4,.cls-5{stroke:#c49a6c;}.cls-13,.cls-20,.cls-21,.cls-22,.cls-23,.cls-24,.cls-3,.cls-4,.cls-5,.cls-8,.cls-9{stroke-miterlimit:10;}.cls-3{stroke-width:1.3px;}.cls-4{stroke-width:0.99px;}.cls-5{stroke-width:1.35px;}.cls-25,.cls-6{fill:#fff;}.cls-7{fill:#c49a6c;}.cls-24,.cls-8,.cls-9{stroke:#fff;}.cls-8{stroke-width:0.56px;}.cls-9{stroke-width:0.5px;}.cls-10{fill:#8b5e3c;}.cls-11{fill:#ffdcdc;}.cls-12{fill:#754c29;}.cls-13{stroke-width:1.02px;}.cls-14{mask:url(#mask);}.cls-15{opacity:0.89;}.cls-16{fill:#eac4a0;}.cls-17{fill:#a97c50;}.cls-18{fill:url(#_10_dpi_10_);}.cls-19{fill:#9e1b2b;}.cls-20,.cls-21,.cls-22,.cls-23{stroke:#603913;}.cls-20{stroke-width:0.87px;}.cls-21,.cls-23{fill:#603913;}.cls-21{stroke-width:0.65px;}.cls-22{stroke-width:0.79px;}.cls-23{stroke-width:0.59px;}.cls-24{stroke-width:1.71px;}.cls-25{font-size:15.01px;font-family:MyriadPro-Regular, Myriad Pro;}.cls-26{letter-spacing:0.01em;}.cls-27{letter-spacing:-0.01em;}.cls-28{filter:url(#luminosity-invert-noclip);}</style><filter id="luminosity-invert-noclip" x="265.2" y="-8449.62" width="236.22" height="32766" filterUnits="userSpaceOnUse" color-interpolation-filters="sRGB"><feColorMatrix values="-1 0 0 0 1 0 -1 0 0 1 0 0 -1 0 1 0 0 0 1 0" result="invert"/><feFlood flood-color="#fff" result="bg"/><feBlend in="invert" in2="bg"/></filter><mask id="mask" x="265.2" y="-8449.62" width="236.22" height="32766" maskUnits="userSpaceOnUse"><g class="cls-28"/></mask><pattern id="_10_dpi_10_" data-name="10 dpi 10%" width="28.8" height="28.8" patternTransform="translate(13.53 -8.03) scale(0.96 0.84)" patternUnits="userSpaceOnUse" viewBox="0 0 28.8 28.8"><rect class="cls-1" width="28.8" height="28.8"/><circle class="cls-2" cx="28.8" cy="28.8" r="0.72"/><path class="cls-2" d="M14.4,29.52a.72.72,0,1,0-.72-.72A.72.72,0,0,0,14.4,29.52Z"/><path class="cls-2" d="M28.8,15.12a.72.72,0,1,0-.72-.72A.72.72,0,0,0,28.8,15.12Z"/><path class="cls-2" d="M14.4,15.12a.72.72,0,1,0-.72-.72A.72.72,0,0,0,14.4,15.12Z"/><path class="cls-2" d="M7.2,22.32a.72.72,0,1,0-.72-.72A.72.72,0,0,0,7.2,22.32Z"/><path class="cls-2" d="M21.6,22.32a.72.72,0,1,0-.72-.72A.72.72,0,0,0,21.6,22.32Z"/><path class="cls-2" d="M7.2,7.92a.72.72,0,1,0-.72-.72A.72.72,0,0,0,7.2,7.92Z"/><path class="cls-2" d="M21.6,7.92a.72.72,0,1,0-.72-.72A.72.72,0,0,0,21.6,7.92Z"/><circle class="cls-2" cy="28.8" r="0.72"/><path class="cls-2" d="M0,15.12a.72.72,0,0,0,0-1.44.72.72,0,0,0-.72.72A.72.72,0,0,0,0,15.12Z"/><path class="cls-2" d="M28.8.72A.72.72,0,0,0,29.52,0a.72.72,0,0,0-.72-.72.72.72,0,0,0-.72.72A.72.72,0,0,0,28.8.72Z"/><path class="cls-2" d="M14.4.72A.72.72,0,0,0,15.12,0a.72.72,0,0,0-.72-.72.72.72,0,0,0-.72.72A.72.72,0,0,0,14.4.72Z"/><path class="cls-2" d="M0,.72A.72.72,0,0,0,.72,0,.72.72,0,0,0,0-.72.72.72,0,0,0-.72,0,.72.72,0,0,0,0,.72Z"/></pattern></defs><g id="cup_bootom" data-name="cup bootom"><path class="cls-3" d="M393.06,435c30.46.74,54.14,6.4,54.14,13.26,0,7.38-27.3,13.36-61,13.36s-61-6-61-13.36c0-7,24.38-12.69,55.5-13.28"/><path class="cls-4" d="M394.33,352.61l1.25,91.48c0,2-4.19,1.73-7.8,1.73l-2.44,0c-1.17,0-2.39,0-3.48-.08-2.05-.15-3.65-.55-3.65-1.6l3-91"/><path class="cls-5" d="M385.06,348h.05a11.82,11.82,0,0,1,1.3-.3"/><path class="cls-6" d="M379.47,446.59h0c-.74,0-2,.27-1.89-1.67l4.33-89.14c.08-1.93.75-3.48,1.49-3.45h0c.73,0,1.27,1.63,1.19,3.56L381.14,445C381.06,446.93,380.21,446.62,379.47,446.59Z"/><path class="cls-7" d="M392.09,431.62h0c-.37,0-1,.26-1-1.12L390.54,367c0-1.38.26-2.5.63-2.5h0c.37,0,.68,1.11.7,2.48l1,63.42C392.88,431.8,392.45,431.61,392.09,431.62Z"/><path class="cls-7" d="M410.76,439.76c9.72.66,16.25,3,18.86,5.31a4.75,4.75,0,0,1,1.58,2.21c.36,1.89-5.95,3.83-7.34,4.21a93.4,93.4,0,0,1-13.18,2.5c-3.4.46-9.45,1.45-15.19.57,20-1.64,34-4.6,33.53-7.57C428.52,443.63,420.14,441.53,410.76,439.76Z"/><path class="cls-6" d="M402.85,443.17c4,.27,6.75,1.25,7.84,2.2a2,2,0,0,1,.65.92c.15.79-2.47,1.59-3,1.75a40.09,40.09,0,0,1-5.47,1,22.15,22.15,0,0,1-6.31.23c8.31-.68,14.12-1.91,13.93-3.14C410.23,444.77,406.75,443.91,402.85,443.17Z"/><path class="cls-8" d="M346.29,447.43c0,3.41,9.71,6.17,21.72,6.17"/><path class="cls-9" d="M347.49,444.78c0-3,11.54-5.43,25.8-5.43"/><path class="cls-7" d="M400,446.41c0,1.1-5.57,2-12.44,2s-12.44-.9-12.44-2c0-.56,1.39-1.05,3.64-1.42l1.16-.13,1.19-.12c4.4-3,8.62-2.57,12.69-.11.43,0,.85.1,1.28.16l1.27.2C398.59,445.36,400,445.85,400,446.41Z"/><path class="cls-6" d="M391.81,443.54c0,.79-6.52-.87-9.32,1.48-1.7,1.43-4.61-.64-4.61-1.44s2.06-1.44,4.61-1.44S391.81,442.74,391.81,443.54Z"/></g><g id="cup"><g id="Straw"><rect class="cls-10" x="456.3" y="34.09" width="14.75" height="274.73" transform="translate(128.78 -192.19) rotate(27.06)"/><polygon class="cls-1" points="457.53 199.69 438.57 204.37 430.39 220.39 449.35 215.71 457.53 199.69"/><polygon class="cls-1" points="507.35 102.18 488.4 106.85 479.66 123.94 498.62 119.27 507.35 102.18"/><polygon class="cls-1" points="441.44 231.19 422.48 235.87 413.75 252.96 432.71 248.28 441.44 231.19"/><polygon class="cls-1" points="405.58 296.03 407.75 297.13 408.71 295.26 405.58 296.03"/><polygon class="cls-1" points="474.62 166.24 455.66 170.92 446.48 188.89 465.44 184.22 474.62 166.24"/><polygon class="cls-1" points="490.71 134.75 471.75 139.42 463.57 155.44 482.53 150.76 490.71 134.75"/><polygon class="cls-1" points="424.8 263.76 405.84 268.44 397.66 284.45 416.62 279.78 424.8 263.76"/><polygon class="cls-1" points="523.45 70.68 504.49 75.36 496.31 91.37 515.26 86.7 523.45 70.68"/><polygon class="cls-1" points="532.74 52.49 519.6 45.77 512.4 59.88 531.36 55.2 532.74 52.49"/><polygon class="cls-11" points="531.36 55.2 512.4 59.88 504.49 75.36 523.45 70.68 531.36 55.2"/><polygon class="cls-11" points="515.26 86.7 496.31 91.37 488.4 106.85 507.35 102.18 515.26 86.7"/><polygon class="cls-11" points="498.62 119.27 479.66 123.94 471.75 139.42 490.71 134.75 498.62 119.27"/><polygon class="cls-11" points="482.53 150.76 463.57 155.44 455.66 170.92 474.62 166.24 482.53 150.76"/><polygon class="cls-11" points="465.44 184.22 446.48 188.89 438.57 204.37 457.53 199.69 465.44 184.22"/><polygon class="cls-11" points="449.35 215.71 430.39 220.39 422.48 235.87 441.44 231.19 449.35 215.71"/><polygon class="cls-11" points="432.71 248.28 413.75 252.96 405.84 268.44 424.8 263.76 432.71 248.28"/><polygon class="cls-11" points="416.62 279.78 397.66 284.45 394.61 290.42 405.58 296.03 408.71 295.26 416.62 279.78"/></g><path class="cls-12" d="M491.39,201.72c0,14.36-60.59,102.71-117.12,102.71s-93-15.86-93-30.21,36.44-21.76,93-21.76S491.39,187.37,491.39,201.72Z"/><path class="cls-13" d="M504.11,222.45c-.47-6.11-1.39-44.11-2.73-49.93h-236c-.36,1.58-.7,35.21-1,36.81A121.12,121.12,0,1,0,504,242.73q.5-5.39.49-10.89C504.47,228.67,504.35,225.55,504.11,222.45Z"/><g class="cls-14"><g class="cls-15"><path class="cls-16" d="M383.31,350.34A118.15,118.15,0,0,1,267.25,210.28c.13-.75.29-30.55.46-31.37l231.21-1c1,5,1.76,40.08,2.15,45.16.23,3,.35,6.09.35,9.16,0,3.59-.16,7.17-.48,10.61a118.09,118.09,0,0,1-117.63,107.5Z"/></g></g><circle class="cls-10" cx="361.61" cy="329.4" r="9.55"/><ellipse class="cls-6" cx="360.01" cy="323.96" rx="2.14" ry="0.96" transform="translate(-70.06 101.25) rotate(-14.61)"/><circle class="cls-10" cx="381.18" cy="332.35" r="9.55"/><ellipse class="cls-6" cx="375.58" cy="331.42" rx="2.14" ry="0.96" transform="translate(-22.4 635.58) rotate(-78.82)"/><circle class="cls-10" cx="403.84" cy="320.83" r="9.55"/><ellipse class="cls-6" cx="408.31" cy="317.33" rx="0.96" ry="2.14" transform="translate(-108.62 303.13) rotate(-36.28)"/><circle class="cls-10" cx="423.93" cy="330.17" r="9.55"/><ellipse class="cls-6" cx="428.39" cy="326.68" rx="0.96" ry="2.14" transform="translate(-110.25 316.83) rotate(-36.28)"/><circle class="cls-10" cx="423.74" cy="306.32" r="9.55"/><ellipse class="cls-6" cx="428.21" cy="302.82" rx="0.96" ry="2.14" transform="translate(-96.17 312.09) rotate(-36.28)"/><circle class="cls-10" cx="457.04" cy="310.99" r="9.55"/><ellipse class="cls-6" cx="461.5" cy="307.49" rx="0.96" ry="2.14" transform="translate(-92.48 332.7) rotate(-36.28)"/><circle class="cls-10" cx="335.29" cy="322.06" r="9.55"/><ellipse class="cls-6" cx="332.9" cy="316.91" rx="2.14" ry="0.96" transform="translate(-97.72 156.21) rotate(-23.13)"/><circle class="cls-10" cx="313.26" cy="301.25" r="9.55"/><ellipse class="cls-6" cx="308.36" cy="298.38" rx="2.14" ry="0.96" transform="translate(-108.31 400.88) rotate(-57.88)"/><circle class="cls-10" cx="367.73" cy="304.92" r="9.55"/><ellipse class="cls-6" cx="372.2" cy="301.42" rx="0.96" ry="2.14" transform="translate(-106.2 278.68) rotate(-36.28)"/><circle class="cls-10" cx="410.57" cy="279.21" r="9.55"/><ellipse class="cls-6" cx="412.38" cy="273.84" rx="0.96" ry="2.14" transform="translate(12.01 564.95) rotate(-69.61)"/><circle class="cls-10" cx="391.6" cy="303.08" r="9.55"/><ellipse class="cls-6" cx="391.32" cy="297.42" rx="2.14" ry="0.96" transform="translate(-5.14 6.88) rotate(-1)"/><circle class="cls-10" cx="443.01" cy="288.39" r="9.55"/><ellipse class="cls-6" cx="447.48" cy="284.9" rx="0.96" ry="2.14" transform="translate(-81.83 320.02) rotate(-36.28)"/><circle class="cls-10" cx="441.23" cy="321.95" r="9.55"/><ellipse class="cls-6" cx="445.69" cy="318.45" rx="0.96" ry="2.14" transform="translate(-102.03 325.47) rotate(-36.28)"/><circle class="cls-10" cx="404.45" cy="333.68" r="9.55"/><ellipse class="cls-6" cx="408.92" cy="330.19" rx="0.96" ry="2.14" transform="translate(-116.11 305.98) rotate(-36.28)"/><circle class="cls-10" cx="385.48" cy="325.73" r="9.55"/><ellipse class="cls-6" cx="389.94" cy="322.23" rx="0.96" ry="2.14" transform="translate(-115.08 293.21) rotate(-36.28)"/><circle class="cls-10" cx="358.58" cy="317.11" r="9.55"/><ellipse class="cls-6" cx="363.04" cy="313.61" rx="0.96" ry="2.14" transform="translate(-115.19 275.63) rotate(-36.28)"/><circle class="cls-10" cx="348.98" cy="331.53" r="9.55"/><ellipse class="cls-6" cx="345.93" cy="326.75" rx="2.14" ry="0.96" transform="matrix(0.86, -0.51, 0.51, 0.86, -118.3, 222.24)"/><circle class="cls-10" cx="323.32" cy="318.26" r="9.55"/><ellipse class="cls-6" cx="322.9" cy="312.6" rx="2.14" ry="0.96" transform="translate(-13.19 14.22) rotate(-2.47)"/><path class="cls-6" d="M494.44,253.09a105,105,0,0,1-23.26,54c-27.63,33-66.61,36.66-74.44,37.22a119.09,119.09,0,0,0,64-34.11c28.22-29.25,32-63.7,32.69-73.44Z"/><path class="cls-10" d="M501.72,175.65c0,5.8-53.7,13.38-118,13.38S265.3,180.24,265.3,174.44s55.56-.68,119.87-.68S501.72,169.85,501.72,175.65Z"/><path class="cls-10" d="M485.74,129.53c5.29,14.71,12,37.11-3.67,47.19-9,6.72-23.52,0-31.85,10.45a87.41,87.41,0,0,0-5.33,7.35c-5.09,7.68-9.85,15.79-17.69,21.39-13.44,10.08-29.12-4.48-43.3,1.59a19.38,19.38,0,0,0-7.33,3.85c-8.8,6.83-10.74,19.55-15.37,28.28a21,21,0,0,1-4.13,5.65c-6,5.43-15,6.55-20.58,2.07-5.22-5.23-9.08-12.45-13-19.45a113.78,113.78,0,0,0-6.15-10.05c-8.82-16.42-26.74-4.1-37.94-4.1-16.8,0-15.68-30.23-24.37-45.74a97.26,97.26,0,0,1-2.56-11.5c-3.08-18.85-.31-38.71,6.31-56.2,1.22-3.2,2.52-6.33,3.86-9.36s2.72-6,4.09-8.75a77.09,77.09,0,0,1,5.82-8.59,82.25,82.25,0,0,1,7.79-8.46c19.82-18.78,50.89-30.87,85.81-30.87s66,12.09,85.81,30.87a83.19,83.19,0,0,1,7.78,8.45c5.53,8.68,11.35,17.05,16.28,25.52,1.24,2.11,2.42,4.24,3.52,6.38s2.13,4.34,3.07,6.59C483.7,124.47,484.76,127,485.74,129.53Z"/><path class="cls-6" d="M345.33,254.84a10.24,10.24,0,0,1-6.38-2c-4.49-4.53-8.07-10.92-11.53-17.1l-.88-1.57c-1.89-3.36-3.92-6.91-6.21-10.17-3.61-6.6-9.16-9.94-16.49-9.94-4.66,0-9.36,1.26-13.9,2.48-3.75,1-7.3,2-10.1,2-8.06,0-11.1-9.48-14.82-24-1.8-7-3.67-14.27-6.76-19.93a95.72,95.72,0,0,1-2.39-10.83C253,146.43,255.23,127,262,109.09c1.12-3,2.39-6,3.79-9.21,1.21-2.74,2.55-5.61,4-8.55a74.47,74.47,0,0,1,5.54-8.16A79.76,79.76,0,0,1,282.84,75C303,55.94,333.52,45,366.58,45S430.17,55.94,450.33,75a81.66,81.66,0,0,1,7.41,8c1.89,3,3.84,5.93,5.72,8.8,3.71,5.66,7.22,11,10.41,16.48,1.29,2.21,2.42,4.26,3.44,6.25,1.13,2.19,2.1,4.28,3,6.37l.05.12c1.12,2.4,2.15,4.83,3.07,7.24,6.05,16.83,10.51,35.23-2.49,43.59l-.09.06-.09.06c-3.24,2.43-7.73,2.74-12.48,3.08-6.76.48-14.43,1-19.92,7.9a88.16,88.16,0,0,0-5.48,7.57c-.6.9-1.2,1.81-1.79,2.72-4.47,6.82-8.68,13.27-15.15,17.88a15.25,15.25,0,0,1-9.68,3.11,52.7,52.7,0,0,1-11.2-1.72,58.17,58.17,0,0,0-12.7-1.9,22.78,22.78,0,0,0-9,1.71,22.52,22.52,0,0,0-8.2,4.34c-6.66,5.19-9.71,13.27-12.41,20.4a79.16,79.16,0,0,1-3.73,8.81,18,18,0,0,1-3.53,4.87A15.48,15.48,0,0,1,345.33,254.84Z"/><path class="cls-17" d="M348.07,263a8.68,8.68,0,0,1-4.92-1.36c-4.62-4.5-8.46-11-12.17-17.27l-1-1.66a127.55,127.55,0,0,0-7-10.89c-4.61-7.87-12-12-21.28-12-5.66,0-11.13,1.39-16.42,2.73-4,1-7.73,2-10.42,2-6.05,0-9-7.08-13.31-23-2-7.48-4.14-15.22-7.69-21.51a94.27,94.27,0,0,1-2.49-10.76c-3.06-17.8-.67-37.77,6.72-56.24,1.23-3.07,2.63-6.3,4.17-9.59,1.32-2.82,2.78-5.79,4.35-8.82a75.19,75.19,0,0,1,5.88-8.19,84,84,0,0,1,8-8.26c21.92-19.66,55.21-30.94,91.33-30.94s69.4,11.28,91.32,30.94a86,86,0,0,1,7.86,8c2.12,3.16,4.35,6.37,6.32,9.21,4.13,6,8,11.58,11.54,17.3,1.41,2.3,2.65,4.41,3.76,6.47,1.22,2.25,2.27,4.38,3.2,6.51l.09.19c1.25,2.53,2.37,5,3.37,7.51,11.26,29.67,5.58,38.06-1.47,42.35l-.2.12-.19.13c-2.83,2-7.37,2.32-12.18,2.64-7.84.52-17.6,1.18-24.65,9.55a100.6,100.6,0,0,0-6.3,8.23l-1.95,2.8-.07.1c-4.81,7-9.36,13.55-16.08,18.09a14.34,14.34,0,0,1-8.87,2.7,59.17,59.17,0,0,1-11.79-1.75,71.28,71.28,0,0,0-14.93-2.08,30.43,30.43,0,0,0-11.17,2,29.1,29.1,0,0,0-10.15,5.12c-8.15,6.05-11.74,15-14.9,22.94a76.28,76.28,0,0,1-4,9,16.26,16.26,0,0,1-3.27,4.32A14.25,14.25,0,0,1,348.07,263Z"/><path class="cls-10" d="M345.75,256.41a3.73,3.73,0,0,1-1.52-.27c-4-4.19-7.49-10.43-10.91-16.47l-1-1.75c-2.14-3.77-4.46-7.77-7.16-11.6a28.69,28.69,0,0,0-25.83-15c-6.37,0-12.19,1.54-17.82,3-3.47.92-7.05,1.87-9,1.87-2.94,0-6.86-15.08-8.15-20-2.06-7.92-4.19-16.1-7.87-23.1a95.71,95.71,0,0,1-2.21-10.13c-2.92-17.71-.63-37.6,6.44-56,1.19-3.12,2.56-6.4,4.06-9.76,1.26-2.82,2.67-5.79,4.17-8.84a74,74,0,0,1,5.39-7.81,81.16,81.16,0,0,1,7.51-8c21-19.62,52.93-30.87,87.73-30.87s66.77,11.26,87.73,30.88a80.49,80.49,0,0,1,7.2,7.65c2,3.16,4.17,6.37,6.06,9.21l.14.21c4.1,6.18,8,12,11.4,17.83,1.36,2.31,2.55,4.44,3.63,6.51,1.16,2.23,2.15,4.32,3,6.41l.18.41c1.19,2.51,2.27,5,3.22,7.49,11.32,31.12,3.84,35.88.64,37.91l-.36.22-.33.25c-1.59,1.18-5.73,1.47-9.38,1.72-8.42.59-20,1.4-28.48,12a108.29,108.29,0,0,0-6.58,9c-.64,1-1.27,1.9-1.9,2.86l-.14.21c-4.54,6.85-8.82,13.31-14.72,17.48l-.1.07a8.62,8.62,0,0,1-5.68,1.76,53.48,53.48,0,0,1-10.61-1.69c-5.09-1.14-10.34-2.31-16.14-2.31a34.49,34.49,0,0,0-13,2.38,33.68,33.68,0,0,0-11.73,6.22c-9.29,7.22-13.32,17.74-16.55,26.2a84,84,0,0,1-3.72,8.76,12.45,12.45,0,0,1-2.21,3.13A8.47,8.47,0,0,1,345.75,256.41Z"/><path class="cls-7" d="M346.83,229.54c-1.18-1.87-2.35-3.84-3.51-5.78l-1-1.66c-2.19-3.67-4.57-7.55-7.41-11.42-7.41-12-20.11-18.86-34.91-18.86-7.83,0-14.65,1.72-20.66,3.23l-.74.19c-.79-2.24-1.84-5.55-3.19-10.44-2.1-7.68-4.27-15.59-8.14-22.91a77.21,77.21,0,0,1-1.73-7.73c-2.65-15.22-.55-32.37,5.91-48.34,1.13-2.8,2.43-5.75,3.85-8.77,1.16-2.46,2.44-5,3.82-7.7a59.59,59.59,0,0,1,4.43-6.06A68.44,68.44,0,0,1,290,76.73C309,59.91,338.13,50.26,370.07,50.26s61.12,9.65,80.06,26.48A68.66,68.66,0,0,1,456,82.65c1.94,2.85,3.94,5.7,5.71,8.24l.24.33c4,5.72,7.78,11.12,11.07,16.43,1.28,2,2.38,3.92,3.37,5.73s1.9,3.64,2.67,5.38l.36.76c1.06,2.13,2,4.28,2.89,6.39,6.86,17.91,5.4,23.58,5,24.55l-.36.22c-1.23.19-3.5.34-4.81.43-9.22.61-24.64,1.63-36,15a109.16,109.16,0,0,0-7.15,9.24c-.65.91-1.29,1.83-1.94,2.76l-.15.21c-3.9,5.59-7.58,10.87-11.77,13.78a59.73,59.73,0,0,1-7.78-1.34,86.22,86.22,0,0,0-18.55-2.44,47.87,47.87,0,0,0-16.64,2.83,45,45,0,0,0-14.87,7.56c-11.47,8.51-16.22,20.29-19.69,28.89C347.35,228.25,347.09,228.91,346.83,229.54Z"/><path class="cls-17" d="M272.84,135.79a45.71,45.71,0,0,0,5.6,10.82,50.46,50.46,0,0,0,7.63,8.25,66.07,66.07,0,0,0,9,6.57,83.49,83.49,0,0,0,9.91,5.36,126.92,126.92,0,0,0,21.77,7.55c3.78.95,7.6,1.84,11.49,2.58s7.83,1.41,11.84,2.16v11.8a73.65,73.65,0,0,1-13.36.86,86.62,86.62,0,0,1-39.18-10.39,69.84,69.84,0,0,1-11.5-7.93,50.68,50.68,0,0,1-9.38-10.67,38.93,38.93,0,0,1-5.51-13.17,27,27,0,0,1,.71-13.79Z"/><path class="cls-17" d="M416.76,87.49a18.2,18.2,0,0,1,1.17,3.8c.1.65.27,1.33.31,2l.11,2a27.14,27.14,0,0,1-1.25,8.17,38.55,38.55,0,0,1-8.21,14.23A55.77,55.77,0,0,1,396.67,128a74.9,74.9,0,0,1-13.93,6.77,96.08,96.08,0,0,1-29.52,5.82,83.89,83.89,0,0,1-29.39-3.82v-1c4.72-1.68,9.31-3,13.84-4.37l13.3-4.11c8.71-2.78,17.14-5.72,25.17-9.12a145.9,145.9,0,0,0,22.41-11.83l1.29-.86,1.24-.89c.86-.59,1.63-1.22,2.46-1.85.43-.3.78-.65,1.18-1s.81-.65,1.19-1L407,99.69a12.83,12.83,0,0,0,1.12-1.09,37,37,0,0,0,4.11-4.93,43.62,43.62,0,0,0,3.51-6.18Z"/><path class="cls-18" d="M346.13,215.85c-1.16-1.7-2.32-3.49-3.47-5.26l-1-1.52c-2.16-3.33-4.5-6.87-7.3-10.39-7.31-10.91-19.84-17.16-34.44-17.16-7.72,0-14.44,1.56-20.38,2.94l-.72.16c-.79-2-1.82-5-3.15-9.5-2.07-7-4.21-14.18-8-20.85a67.77,67.77,0,0,1-1.71-7c-2.61-13.85-.54-29.47,5.83-44,1.12-2.55,2.39-5.24,3.8-8,1.14-2.25,2.41-4.6,3.77-7a53,53,0,0,1,4.37-5.52,65,65,0,0,1,6.37-6c18.67-15.31,47.45-24.09,79-24.09s60.28,8.78,79,24.1a65.74,65.74,0,0,1,5.83,5.38c1.92,2.59,3.89,5.19,5.63,7.5l.23.3c3.95,5.2,7.68,10.12,10.93,15,1.26,1.87,2.34,3.57,3.32,5.22s1.88,3.31,2.64,4.89l.35.69c1.05,2,2,3.91,2.85,5.82,6.76,16.3,5.32,21.47,5,22.35l-.36.2c-1.21.17-3.44.31-4.74.39-9.09.55-24.3,1.48-35.55,13.64a103.07,103.07,0,0,0-7.06,8.41c-.64.83-1.27,1.67-1.91,2.51l-.15.2c-3.84,5.09-7.48,9.89-11.6,12.54a61.73,61.73,0,0,1-7.68-1.22,92.36,92.36,0,0,0-18.3-2.22A50.52,50.52,0,0,0,381,180.9a46,46,0,0,0-14.67,6.88c-11.31,7.74-16,18.46-19.41,26.29C346.64,214.68,346.39,215.27,346.13,215.85Z"/><ellipse class="cls-17" cx="298.64" cy="108.7" rx="11.03" ry="6.98" transform="translate(10.6 243.01) rotate(-45)"/><ellipse class="cls-17" cx="313.94" cy="95.2" rx="11.03" ry="6.98" transform="translate(-5.54 169.72) rotate(-30)"/><path class="cls-19" d="M294,84.84c8.7,2.6,11.35,8.83,8.57,18.1s-9.94,18.1-18.63,15.49-13.5-12.24-10.72-21.51S285.26,82.23,294,84.84Z"/><ellipse class="cls-6" cx="282.17" cy="109.83" rx="1.52" ry="3.98" transform="translate(25.69 270.77) rotate(-53.38)"/><path class="cls-20" d="M279.73,94.29c-11-3.31-21.07-2.36-22.41,2.11"/><ellipse class="cls-21" cx="279.85" cy="94.69" rx="1.73" ry="0.58" transform="matrix(0.58, -0.81, 0.81, 0.58, 40.18, 267.44)"/><path class="cls-19" d="M320.44,80.18c3.91,7.22,1.65,12.9-6,17.07s-17.9,5.28-21.82-1.94-.86-16.44,6.83-20.62S316.52,73,320.44,80.18Z"/><ellipse class="cls-6" cx="296.96" cy="88.7" rx="1.37" ry="3.6" transform="translate(-9.9 45.23) rotate(-8.57)"/><path class="cls-22" d="M305.29,77.19c-5-9.16-12-14.94-15.71-12.93"/><ellipse class="cls-23" cx="305.12" cy="77.51" rx="1.56" ry="0.52" transform="matrix(0.99, -0.17, 0.17, 0.99, -8.68, 52.34)"/><path class="cls-6" d="M277.11,262.7a97.12,97.12,0,0,0,47.42,67.41,125.1,125.1,0,0,1-21.93-22.58c-5.57-7.43-9.26-14.15-15.49-25.48C282.79,274.18,279.43,267.48,277.11,262.7Z"/><g id="button"><circle class="cls-24" cx="387.05" cy="254.19" r="34.43" transform="translate(80.29 601.06) rotate(-81.81)"/><text class="cls-25" transform="translate(375.43 247.49)"><tspan class="cls-26">G</tspan><tspan x="9.77" y="0">et</tspan><tspan class="cls-27" x="-16.92" y="18.01">C</tspan><tspan x="-8.38" y="18.01">oupons</tspan></text></g></g></svg>